<svg width="109" height="22" viewBox="0 0 109 22" fill="none" xmlns="http://www.w3.org/2000/svg">
<g clip-path="url(#clip0_1_13)">
<path fill-rule="evenodd" clip-rule="evenodd" d="M102.651 14.8135V6.1989H108.646V7.23071H104.026V9.79146H108.136V10.7983H104.026V13.7817H109V14.8135H102.651ZM94.7139 13.6201C94.6199 13.4212 94.4949 13.1685 94.3389 12.8618C94.1829 12.5553 94.0149 12.2237 93.8359 11.8674C93.6559 11.511 93.4649 11.1443 93.2619 10.7673C93.0589 10.3902 92.8669 10.0339 92.6879 9.69818C92.5079 9.36256 92.3409 9.06213 92.1849 8.79696C92.0289 8.53178 91.9039 8.32871 91.8089 8.18782C91.7049 9.16579 91.6199 10.2244 91.5539 11.3639C91.4879 12.5035 91.4309 13.6534 91.3839 14.8135H90.0379C90.0749 14.0677 90.1179 13.3156 90.1649 12.5573C90.2119 11.799 90.2669 11.0532 90.3279 10.3198C90.3889 9.58634 90.4559 8.87157 90.5259 8.17538C90.5969 7.47927 90.6749 6.82047 90.7599 6.1989H91.9649C92.2199 6.56356 92.4939 6.9945 92.7869 7.49171C93.0799 7.98892 93.3729 8.50895 93.6659 9.05182C93.9589 9.5946 94.2419 10.1375 94.5159 10.6802C94.7899 11.223 95.0399 11.7183 95.2669 12.1657C95.4939 11.7182 95.7439 11.223 96.0179 10.6802C96.2919 10.1375 96.5759 9.5946 96.8689 9.05182C97.1619 8.50895 97.4549 7.98892 97.7469 7.49171C98.0399 6.9945 98.3139 6.56356 98.5689 6.1989H99.7739C100.095 8.97515 100.336 11.8466 100.497 14.8135H99.1509C99.1029 13.6534 99.0469 12.5035 98.9799 11.3639C98.9139 10.2244 98.8289 9.16571 98.7249 8.18782C98.6309 8.32871 98.5059 8.53178 98.3499 8.79696C98.1939 9.06213 98.0259 9.36256 97.8469 9.69818C97.6669 10.0339 97.4759 10.3902 97.2729 10.7673C97.0689 11.1443 96.8779 11.511 96.6989 11.8674C96.5189 12.2237 96.3509 12.5553 96.1959 12.8618C96.0399 13.1685 95.9139 13.4213 95.8199 13.6201H94.7139ZM86.1824 11.6188C85.8801 10.8978 85.5801 10.1996 85.2825 9.52415C84.9847 8.84875 84.6753 8.20025 84.3541 7.57876C84.0234 8.20025 83.7092 8.84875 83.4116 9.52415C83.114 10.1996 82.8187 10.8978 82.5258 11.6188H86.1824ZM87.4719 14.8135C87.3119 14.4406 87.1599 14.0739 87.0189 13.7134C86.8769 13.3529 86.7304 12.9862 86.5793 12.6133H82.1289L81.2361 14.8135H79.8046C80.1826 13.9019 80.5369 13.0587 80.8676 12.2839C81.1983 11.509 81.5219 10.7735 81.8384 10.0773C82.1549 9.38122 82.4691 8.71612 82.7809 8.08219C83.0927 7.44818 83.4187 6.82047 83.7588 6.1989H85.0202C85.3604 6.82047 85.6864 7.44818 85.9982 8.08219C86.31 8.71612 86.6241 9.38122 86.9407 10.0773C87.2569 10.7735 87.5809 11.509 87.9119 12.2839C88.2419 13.0587 88.5969 13.9019 88.9749 14.8135H87.4719ZM74.3198 7.16853C73.734 7.16853 73.2852 7.18096 72.9734 7.20584V10.4503H73.9513C74.4238 10.4503 74.8489 10.4296 75.2269 10.3882C75.6048 10.3467 75.9237 10.268 76.1835 10.1519C76.4434 10.0359 76.6441 9.87221 76.7859 9.66096C76.9276 9.44962 76.9985 9.16988 76.9985 8.82183C76.9985 8.49865 76.9276 8.2293 76.7859 8.01379C76.6441 7.79836 76.4528 7.62843 76.2119 7.50415C75.9709 7.37986 75.6875 7.29281 75.3615 7.24315C75.0355 7.1934 74.6883 7.16853 74.3198 7.16853ZM76.4032 11.2085C76.5544 11.3743 76.7457 11.5919 76.9772 11.8612C77.2087 12.1306 77.4472 12.4289 77.6929 12.7562C77.9386 13.0836 78.1819 13.4254 78.4228 13.7817C78.6637 14.1381 78.8692 14.4821 79.0393 14.8135H77.537C77.348 14.4986 77.1425 14.1795 76.9205 13.8563C76.6985 13.5332 76.4741 13.2245 76.2473 12.9302C76.0205 12.636 75.7961 12.3605 75.5741 12.1036C75.3521 11.8466 75.1513 11.623 74.9718 11.4323C74.8489 11.4406 74.7237 11.4448 74.5962 11.4448C74.4686 11.4448 74.3387 11.4448 74.2064 11.4448H72.9734V14.8135H71.5987V6.32318C71.9861 6.24038 72.4183 6.18442 72.8955 6.15537C73.3726 6.12641 73.8096 6.11193 74.2064 6.11193C75.5859 6.11193 76.637 6.33979 77.3599 6.7956C78.0826 7.25141 78.4441 7.93091 78.4441 8.83426C78.4441 9.40609 78.2716 9.89504 77.9268 10.3011C77.5819 10.7072 77.074 11.0096 76.4032 11.2085ZM63.9879 14.8135V6.1989H69.912V7.23071H65.3626V9.82876H69.4018V10.8481H65.3626V14.8135H63.9879ZM62.5422 13.7693V14.8135H56.6322V6.1989H58.007V13.7693H62.5422ZM55.1866 13.7693V14.8135H49.2766V6.1989H50.6513V13.7693H55.1866ZM41.184 14.8135V6.1989H47.179V7.23071H42.5587V9.79146H46.6688V10.7983H42.5587V13.7817H47.5333V14.8135H41.184ZM36.6203 15C35.9305 15 35.3022 14.9005 34.7353 14.7017C34.1684 14.5027 33.6818 14.2127 33.2755 13.8315C32.8692 13.4503 32.5551 12.98 32.333 12.4206C32.111 11.8612 32 11.221 32 10.5C32 9.77902 32.1252 9.13879 32.3756 8.5794C32.6259 8.02001 32.9637 7.54972 33.3889 7.16853C33.8141 6.78725 34.3101 6.49721 34.877 6.29839C35.4439 6.09941 36.0486 6 36.6911 6C37.0974 6 37.4635 6.02487 37.7895 6.07462C38.1155 6.12428 38.3989 6.18229 38.6399 6.24865C38.8808 6.31492 39.0769 6.38119 39.228 6.44755C39.3792 6.51382 39.4831 6.56356 39.5398 6.5967L39.143 7.5912C39.058 7.54145 38.9351 7.48754 38.7745 7.42953C38.6139 7.37152 38.432 7.31359 38.2289 7.2555C38.0257 7.19749 37.8037 7.14987 37.5628 7.11256C37.3218 7.07525 37.0785 7.0566 36.8329 7.0566C36.3132 7.0566 35.8455 7.13539 35.4298 7.29281C35.014 7.45031 34.6597 7.67817 34.3668 7.97656C34.0739 8.27487 33.8495 8.63741 33.6936 9.06425C33.5377 9.49102 33.4598 9.96965 33.4598 10.5C33.4598 11.0138 33.5283 11.4821 33.6653 11.9047C33.8023 12.3273 34.0078 12.6899 34.2818 12.9924C34.5558 13.2949 34.8983 13.529 35.3093 13.6948C35.7203 13.8605 36.1998 13.9434 36.7478 13.9434C37.3809 13.9434 37.9053 13.8854 38.321 13.7693C38.7367 13.6533 39.0485 13.5497 39.2564 13.4585L39.6107 14.453C39.5446 14.4944 39.4265 14.5462 39.2564 14.6084C39.0863 14.6706 38.8737 14.7307 38.6186 14.7887C38.3635 14.8467 38.0659 14.8964 37.7257 14.9378C37.3856 14.9793 37.0171 15 36.6203 15Z" fill="white"/>
<g filter="url(#filter0_d_1_13)">
<path fill-rule="evenodd" clip-rule="evenodd" d="M5.7363 2.04967C5.1901 2.04967 4.7473 1.59083 4.7473 1.02484C4.7473 0.965149 4.7522 0.906601 4.7617 0.849712C4.8418 0.367138 5.2477 0 5.7363 0C6.2825 0 6.7253 0.458845 6.7253 1.02484C6.7253 1.11105 6.715 1.19478 6.6957 1.27478C6.588 1.71994 6.1993 2.04967 5.7363 2.04967ZM13.8461 1.43477C13.8461 0.868779 14.289 0.409935 14.8352 0.409935C15.3814 0.409935 15.8242 0.868779 15.8242 1.43477C15.8242 2.00076 15.3814 2.45961 14.8352 2.45961C14.289 2.45961 13.8461 2.00076 13.8461 1.43477ZM17.5384 1.98138C17.5384 1.96605 17.5388 1.95082 17.5395 1.93569C17.5625 1.46638 17.937 1.09312 18.3956 1.09312C18.869 1.09312 19.2528 1.49083 19.2528 1.98138C19.2528 2.22656 19.1568 2.44862 19.0017 2.60934C18.8466 2.77017 18.6323 2.86954 18.3956 2.86954C17.9222 2.86954 17.5384 2.47183 17.5384 1.98138ZM11.5385 3.1428H11.5384C10.975 3.1428 10.5087 2.71203 10.4294 2.15102C10.4216 2.09568 10.4176 2.039 10.4176 1.98138C10.4176 1.33985 10.9194 0.819869 11.5384 0.819869H11.5385C12.0487 0.819869 12.4793 1.17312 12.6149 1.65653C12.6438 1.75963 12.6594 1.86854 12.6594 1.98138C12.6594 2.62281 12.1575 3.1428 11.5385 3.1428ZM21.2967 4.78253C20.9431 4.78253 20.6486 4.52037 20.5844 4.17333C20.5759 4.12722 20.5715 4.07966 20.5715 4.03106C20.5715 3.61594 20.8962 3.27948 21.2967 3.27948C21.6472 3.27948 21.9396 3.53708 22.0072 3.87956C22.0169 3.92847 22.022 3.97914 22.022 4.03106C22.022 4.44607 21.6973 4.78253 21.2967 4.78253ZM3.5616 4.91735C2.9727 4.88253 2.5055 4.37664 2.5055 3.7578C2.5055 3.11627 3.0074 2.59629 3.6264 2.59629C4.2454 2.59629 4.7473 3.11627 4.7473 3.7578C4.7473 4.39923 4.2454 4.91921 3.6264 4.91921C3.6047 4.91921 3.583 4.91859 3.5616 4.91735ZM8.2418 5.05589C7.5499 5.05589 6.989 4.47467 6.989 3.7577C6.989 3.67656 6.9962 3.59708 7.01 3.51999C7.1178 2.91659 7.6283 2.45961 8.2418 2.45961C8.9337 2.45961 9.4946 3.04083 9.4946 3.7578C9.4946 4.47467 8.9337 5.05589 8.2418 5.05589ZM22.8132 6.9007C22.8132 6.56102 23.0789 6.2857 23.4066 6.2857C23.7343 6.2857 24 6.56102 24 6.9007C24 7.24017 23.7343 7.5155 23.4066 7.5155C23.0789 7.5155 22.8132 7.24017 22.8132 6.9007ZM10.5649 8.19765C9.9693 8.17019 9.4946 7.66119 9.4946 7.03728C9.4946 6.39575 9.9964 5.87576 10.6154 5.87576C11.2344 5.87576 11.7363 6.39575 11.7363 7.03728C11.7363 7.66119 11.2615 8.17019 10.6659 8.19765C10.6492 8.19838 10.6323 8.19879 10.6154 8.19879C10.5985 8.19879 10.5816 8.19838 10.5649 8.19765ZM2.1758 8.33537C1.4839 8.33537 0.9231 7.75414 0.9231 7.03717C0.9231 6.32031 1.4839 5.73908 2.1758 5.73908H2.1759C2.8677 5.73908 3.4286 6.32031 3.4286 7.03717C3.4286 7.75414 2.8677 8.33537 2.1759 8.33537H2.1758ZM5.011 6.9007C5.011 6.10829 5.6309 5.46583 6.3956 5.46583C7.1603 5.46583 7.7802 6.10829 7.7802 6.9007C7.7802 7.69311 7.1603 8.33547 6.3956 8.33547C5.6309 8.33547 5.011 7.69311 5.011 6.9007ZM11.8682 10.59C11.8682 9.94858 12.37 9.4286 12.989 9.4286C13.6081 9.4286 14.1099 9.94858 14.1099 10.59C14.1099 11.2315 13.6081 11.7516 12.989 11.7516C12.37 11.7516 11.8682 11.2315 11.8682 10.59ZM8.1768 10.6402C8.1761 10.6236 8.1758 10.6068 8.1758 10.59C8.1758 9.87314 8.7367 9.29192 9.4286 9.29192C10.1204 9.29192 10.6813 9.87304 10.6813 10.59C10.6813 10.6068 10.681 10.6236 10.6804 10.6402C10.6549 11.3339 10.1042 11.8882 9.4286 11.8882C8.7529 11.8882 8.2022 11.3339 8.1768 10.6402ZM0 10.7267C0 9.93428 0.6199 9.29192 1.3846 9.29192C2.1493 9.29192 2.7692 9.93428 2.7692 10.7267C2.7692 11.5191 2.1493 12.1615 1.3846 12.1615C0.6199 12.1615 0 11.5191 0 10.7267ZM3.9561 10.7267C3.9561 9.85884 4.635 9.15534 5.4726 9.15534C6.31 9.15534 6.989 9.85884 6.989 10.7267C6.989 11.5945 6.31 12.2981 5.4726 12.2981C4.635 12.2981 3.9561 11.5945 3.9561 10.7267ZM10.3019 15.2583C9.8355 15.1178 9.4946 14.6716 9.4946 14.1428C9.4946 13.5589 9.9103 13.0757 10.4517 12.9937C10.5051 12.9856 10.5598 12.9813 10.6154 12.9813C10.671 12.9813 10.7257 12.9856 10.7792 12.9937C11.3206 13.0757 11.7363 13.5589 11.7363 14.1428C11.7363 14.6716 11.3954 15.1178 10.9289 15.2583C10.8294 15.2883 10.7242 15.3044 10.6154 15.3044C10.5066 15.3044 10.4014 15.2883 10.3019 15.2583ZM2.1758 15.7143C1.4839 15.7143 0.9231 15.1331 0.9231 14.4161C0.9231 13.6992 1.4839 13.118 2.1758 13.118H2.1759C2.8677 13.118 3.4286 13.6992 3.4286 14.4161C3.4286 15.1331 2.8677 15.7143 2.1759 15.7143H2.1758ZM22.8132 15.236C22.8132 14.8964 23.0789 14.6212 23.4066 14.6212C23.7343 14.6212 24 14.8964 24 15.236C24 15.5756 23.7343 15.851 23.4066 15.851C23.0789 15.851 22.8132 15.5756 22.8132 15.236ZM5.011 14.5528C5.011 13.7604 5.6309 13.118 6.3956 13.118C7.1603 13.118 7.7802 13.7604 7.7802 14.5528C7.7802 15.3452 7.1603 15.9875 6.3956 15.9875C5.6309 15.9875 5.011 15.3452 5.011 14.5528ZM21.2967 18.8572C20.9431 18.8572 20.6486 18.5949 20.5844 18.2479C20.5759 18.2018 20.5715 18.1542 20.5715 18.1056C20.5715 17.6905 20.8962 17.3541 21.2967 17.3541C21.6472 17.3541 21.9396 17.6117 22.0072 17.9541C22.0169 18.003 22.022 18.0537 22.022 18.1056C22.022 18.5207 21.6973 18.8572 21.2967 18.8572ZM3.5616 18.9919C2.9727 18.9571 2.5055 18.4513 2.5055 17.8324C2.5055 17.1908 3.0074 16.6708 3.6264 16.6708C4.2454 16.6708 4.7473 17.1908 4.7473 17.8324C4.7473 18.4738 4.2454 18.9938 3.6264 18.9938C3.6047 18.9938 3.583 18.9931 3.5616 18.9919ZM8.2418 19.4037C7.5499 19.4037 6.989 18.8225 6.989 18.1056C6.989 18.0244 6.9962 17.9449 7.01 17.8678C7.1178 17.2644 7.6283 16.8074 8.2418 16.8074C8.9337 16.8074 9.4946 17.3886 9.4946 18.1056C9.4946 18.8225 8.9337 19.4037 8.2418 19.4037ZM17.5384 20.0186C17.5384 20.0033 17.5388 19.988 17.5395 19.9729C17.5625 19.5036 17.937 19.1304 18.3956 19.1304C18.869 19.1304 19.2528 19.5282 19.2528 20.0186C19.2528 20.4978 18.8867 20.8882 18.4287 20.9062C18.4177 20.9067 18.4067 20.9069 18.3956 20.9069C17.9222 20.9069 17.5384 20.5093 17.5384 20.0186ZM11.5385 21.3168H11.5384C10.975 21.3168 10.5087 20.886 10.4294 20.3249C10.4216 20.2696 10.4176 20.2129 10.4176 20.1553C10.4176 19.5139 10.9194 18.9938 11.5384 18.9938H11.5385C12.0487 18.9938 12.4793 19.3471 12.6149 19.8304C12.6438 19.9335 12.6594 20.0425 12.6594 20.1553C12.6594 20.7967 12.1575 21.3168 11.5385 21.3168ZM13.8461 20.7018C13.8461 20.1359 14.289 19.6771 14.8352 19.6771C15.3814 19.6771 15.8242 20.1359 15.8242 20.7018C15.8242 21.2679 15.3814 21.7267 14.8352 21.7267C14.289 21.7267 13.8461 21.2679 13.8461 20.7018ZM5.7363 22C5.1901 22 4.7473 21.5411 4.7473 20.9752C4.7473 20.9155 4.7522 20.857 4.7617 20.8C4.8418 20.3175 5.2477 19.9503 5.7363 19.9503C6.2825 19.9503 6.7253 20.4092 6.7253 20.9752C6.7253 21.0614 6.715 21.1451 6.6957 21.2251C6.588 21.6703 6.1993 22 5.7363 22Z" fill="url(#paint0_linear_1_13)"/>
</g>
</g>
<defs>
<filter id="filter0_d_1_13" x="-13" y="-13" width="54" height="52" filterUnits="userSpaceOnUse" color-interpolation-filters="sRGB">
<feFlood flood-opacity="0" result="BackgroundImageFix"/>
<feColorMatrix in="SourceAlpha" type="matrix" values="0 0 0 0 0 0 0 0 0 0 0 0 0 0 0 0 0 0 127 0" result="hardAlpha"/>
<feOffset dx="2" dy="2"/>
<feGaussianBlur stdDeviation="7.5"/>
<feColorMatrix type="matrix" values="0 0 0 0 0.0705882 0 0 0 0 0.00784314 0 0 0 0 0.133333 0 0 0 0.9 0"/>
<feBlend mode="normal" in2="BackgroundImageFix" result="effect1_dropShadow_1_13"/>
<feBlend mode="normal" in="SourceGraphic" in2="effect1_dropShadow_1_13" result="shape"/>
</filter>
<linearGradient id="paint0_linear_1_13" x1="11.0334" y1="32.9992" x2="33.111" y2="10.8553" gradientUnits="userSpaceOnUse">
<stop stop-color="#964BFF"/>
<stop offset="0.37" stop-color="#A695FF"/>
<stop offset="0.65" stop-color="#3CE9FF"/>
<stop offset="0.86" stop-color="#CAFF2C"/>
<stop offset="1" stop-color="#FFFF21"/>
</linearGradient>
<clipPath id="clip0_1_13">
<rect width="109" height="22" fill="white"/>
</clipPath>
</defs>
</svg>
